<svg width="1920" height="13701" fill="none" xmlns="http://www.w3.org/2000/svg"><path opacity=".2" d="M-23.244 11142.5l.835-3.6c522.038 136.1 494.497 470.6 464.47 825.1-22.35 265.4-44.805 539.7 156.57 753.7 161.701 171.9 292.399 107.5 443.709 32.6 109.56-53.7 233.08-115 387.19-92.6 176.41 25.8 364.5 157.5 574.62 402.8l-2.81 2.4c-209.34-244.4-396.77-375.7-571.99-401.3-152.39-22.3-276.04 38.5-385.07 92.1-152.898 75.3-284.532 140.4-448.454-33.6-202.813-215.3-179.953-490.2-157.73-756.1 29.875-352.8 57.668-686.3-461.34-821.5z" fill="#ABABAB"/><path opacity=".2" d="M1981 1.5C1548.17 17.333 628.6 219.8 413 903c-215.6 683.2 494.833 1421 877 1704.5 411.17 271.33 986.8 1376.5 0 3626.5-1233.5 2812.5-1067.5 3027 0 4459l793.5 1029c-266.67 35.3-774.4 305.4-672 1103 102.4 797.6-994.667 1722-1556 2084.5" stroke="#ABABAB" stroke-width="2"/><path opacity=".2" d="M-1049 92c432.833 15.833 1352.4 218.3 1568 901.5 215.6 683.2-494.833 1421-877 1704.5-411.167 271.33-986.8 1376.5 0 3626.5 1233.5 2812.5 1067.5 3027 0 4459" stroke="#ABABAB" stroke-width="2"/></svg>