<svg xmlns="http://www.w3.org/2000/svg" width="146" height="146" viewBox="0 0 146 146" fill="none"><path d="M97.7797 63.5032C102.306 58.9338 103.438 52.6422 100.304 49.478C97.1697 46.3138 90.9383 47.4569 86.4125 52.0264C82.1316 56.3486 80.8892 62.21 83.4194 65.5096L77.512 71.4739L76.3165 70.2668L48.0842 98.7713L51.4808 102.201L79.7132 73.696L78.5178 72.489L84.4251 66.5247C87.6934 69.0795 93.4988 67.8254 97.7797 63.5032ZM77.6176 73.7816L51.5657 100.085L50.1804 98.686L76.2323 72.3829L77.6176 73.7816ZM84.9784 64.951C82.3991 62.3468 83.4938 57.0043 87.4185 53.0418C91.3431 49.0793 96.6346 47.9741 99.2139 50.5782C101.793 53.1825 100.699 58.5252 96.7741 62.4877C92.8494 66.4501 87.5578 67.5553 84.9784 64.951Z" fill="white"></path><path d="M60.0731 52.0219C55.5536 47.4461 49.3307 46.3015 46.2011 49.4701C43.0714 52.6386 44.2021 58.9387 48.7217 63.5145C52.9966 67.8426 58.794 69.0987 62.0576 66.5405L67.9567 72.513L66.7628 73.7218L94.9559 102.265L98.3478 98.8313L70.1545 70.2876L68.9608 71.4962L63.0616 65.5237C65.5885 62.2194 64.3481 56.35 60.0731 52.0219ZM70.2392 72.4063L96.2549 98.7455L94.8715 100.146L68.8558 73.8069L70.2392 72.4063ZM61.5051 64.9643C58.9293 67.5721 53.6452 66.4653 49.726 62.4974C45.8068 58.5294 44.7136 53.1796 47.2893 50.5719C49.8652 47.964 55.1494 49.0706 59.0686 53.0386C62.9878 57.0065 64.0809 62.3565 61.5051 64.9643Z" fill="white"></path><path d="M72.1033 12.1221C71.7455 12.1221 71.343 12.1029 70.8958 12.0645C70.7169 12.0517 70.4997 12.0389 70.2441 12.0261C69.9885 12.0132 69.701 12.0068 69.3815 12.0068L67.9631 12.0261C67.7331 12.0389 67.4073 12.0453 66.9856 12.0453C66.96 12.0453 66.9473 12.0068 66.9473 11.93C66.9473 11.8532 66.96 11.8147 66.9856 11.8147C67.3817 11.8147 67.6692 11.7827 67.8481 11.7187C68.027 11.6546 68.1484 11.533 68.2123 11.3537C68.289 11.1616 68.3209 10.8734 68.3082 10.4892V1.59451C68.2826 1.21029 68.2315 0.92853 68.1548 0.749228C68.0909 0.569925 67.9695 0.448255 67.7906 0.384219C67.6117 0.307375 67.3434 0.268953 66.9856 0.268953C66.96 0.268953 66.9473 0.230531 66.9473 0.153688C66.9473 0.0768443 66.96 0.0384225 66.9856 0.0384225L67.9631 0.0576333C68.5254 0.0832475 68.9854 0.0960547 69.3432 0.0960547C69.7649 0.0960547 70.1866 0.076844 70.6083 0.0384225C71.145 0.0128075 71.5411 0 71.7967 0C73.1384 0 74.3268 0.249743 75.3618 0.749228C76.3969 1.2359 77.2019 1.9211 77.7769 2.8048C78.352 3.6885 78.6395 4.70028 78.6395 5.84013C78.6395 7.06963 78.3328 8.16465 77.7194 9.1252C77.1188 10.0729 76.3202 10.8094 75.3235 11.3345C74.3268 11.8596 73.2534 12.1221 72.1033 12.1221ZM71.9308 11.7379C72.8253 11.7379 73.6048 11.5266 74.2693 11.1039C74.9337 10.6685 75.4449 10.0409 75.8027 9.22126C76.1732 8.40159 76.3585 7.41543 76.3585 6.26277C76.3585 5.27661 76.1988 4.34167 75.8793 3.45797C75.5599 2.56146 75.0488 1.82504 74.3459 1.24871C73.6559 0.672383 72.7742 0.384219 71.7008 0.384219C71.1897 0.384219 70.8447 0.480274 70.6658 0.672384C70.4869 0.851686 70.3974 1.17187 70.3974 1.63293V10.2779C70.4102 10.803 70.5188 11.1808 70.7233 11.4113C70.9405 11.629 71.343 11.7379 71.9308 11.7379Z" fill="#DCCA87"></path><path d="M95.0939 12.8609C95.1256 12.8436 95.1599 12.8403 95.1966 12.8511C95.2334 12.8619 95.2666 12.8851 95.2962 12.9205C95.3294 12.9436 95.338 12.9595 95.3222 12.9681C94.9656 13.7308 94.6487 14.5853 94.3714 15.5315C94.3426 15.6298 94.3027 15.6981 94.2515 15.7364C94.2039 15.7625 94.1249 15.7593 94.0146 15.7268L85.6282 13.2588C85.5792 13.2443 85.5655 13.2002 85.5871 13.1265C85.6087 13.0528 85.6378 13.0213 85.6746 13.0321C86.0425 13.1404 86.3151 13.1873 86.4924 13.1727C86.6821 13.1618 86.8266 13.0775 86.9261 12.9199C87.0378 12.7659 87.1495 12.4984 87.2611 12.1175L89.7613 3.58313C89.8693 3.21447 89.9179 2.93511 89.907 2.74503C89.8961 2.55494 89.8138 2.40392 89.6601 2.29197C89.5101 2.16772 89.2634 2.05508 88.9201 1.95405C88.8833 1.94323 88.8696 1.89915 88.8789 1.82181C88.9005 1.74808 88.9236 1.71482 88.9481 1.72203L96.8747 4.05476C96.9728 4.08362 97.0056 4.15335 96.9732 4.26395L96.2972 6.7079C96.2864 6.74477 96.2442 6.75237 96.1706 6.73073C96.1093 6.71268 96.0762 6.68957 96.0711 6.66139C96.0643 5.91189 95.8426 5.25934 95.4061 4.70374C94.9854 4.13945 94.4011 3.74726 93.6532 3.52716L93.3038 3.42432C92.9237 3.31247 92.6388 3.262 92.4492 3.27293C92.2754 3.27518 92.1424 3.34282 92.0501 3.47585C91.9579 3.60888 91.8552 3.84562 91.7422 4.18609L90.6405 7.94638L92.9394 8.62292C93.5647 8.80694 94.0569 8.83166 94.416 8.69706C94.775 8.56246 95.0265 8.2494 95.1706 7.75786C95.185 7.7087 95.2351 7.69675 95.3209 7.72201C95.4067 7.74727 95.4406 7.79062 95.4226 7.85206L95.1072 8.86045C95.0518 9.00431 94.9844 9.21141 94.9052 9.48175C94.79 9.87499 94.7098 10.1717 94.6644 10.3719L94.3912 11.3727C94.3732 11.4342 94.3274 11.4541 94.2539 11.4324C94.2171 11.4216 94.1821 11.4046 94.1489 11.3815C94.1316 11.3497 94.1265 11.3215 94.1337 11.2969C94.2885 10.7685 94.24 10.3205 93.9882 9.95269C93.7522 9.57624 93.3399 9.30141 92.7514 9.12822L90.4893 8.4625L89.2689 12.6283C89.1249 13.1198 89.1049 13.461 89.2088 13.6518C89.325 13.8461 89.6283 14.0155 90.1187 14.1598L90.6337 14.3114C91.4306 14.5459 92.2267 14.5332 93.022 14.2734C93.8209 14.0013 94.5115 13.5305 95.0939 12.8609Z" fill="#DCCA87"></path><path d="M102.323 19.5827C102.301 19.5689 102.311 19.5296 102.352 19.465C102.394 19.4003 102.425 19.3749 102.447 19.3888C102.78 19.6034 103.039 19.7323 103.224 19.7754C103.409 19.8184 103.572 19.7784 103.711 19.6552C103.862 19.539 104.044 19.3139 104.258 18.9799L109.056 11.4972C109.264 11.174 109.389 10.9197 109.432 10.7342C109.475 10.5488 109.438 10.3806 109.322 10.2298C109.213 10.0682 109.008 9.89051 108.707 9.69663C108.675 9.67586 108.68 9.63315 108.721 9.5685C108.762 9.50386 108.799 9.48192 108.832 9.50269L109.595 10.0174C110.054 10.3436 110.429 10.6002 110.719 10.7871C111.01 10.9741 111.409 11.216 111.917 11.513L112.75 12.0265C112.771 12.0404 112.761 12.0796 112.72 12.1443C112.678 12.2089 112.647 12.2343 112.625 12.2205C112.292 12.0058 112.03 11.8824 111.838 11.8501C111.663 11.8139 111.501 11.854 111.351 11.9702C111.211 12.0933 111.029 12.3184 110.804 12.6455L106.057 20.0474C105.788 20.4676 105.668 20.7858 105.696 21.002C105.731 21.2075 105.916 21.4175 106.249 21.6322L106.7 21.923C107.571 22.4838 108.421 22.7573 109.25 22.7433C110.097 22.7255 110.964 22.416 111.851 21.8149C111.886 21.8072 111.92 21.8138 111.952 21.8345C111.984 21.8553 112.01 21.8868 112.028 21.9292C112.053 21.9607 112.059 21.9873 112.045 22.0088C111.393 22.8369 110.821 23.6334 110.331 24.3984C110.227 24.56 110.095 24.5889 109.933 24.485L102.323 19.5827Z" fill="#DCCA87"></path><path d="M117.46 31.6167C117.443 31.5973 117.464 31.5625 117.522 31.5121C117.579 31.4618 117.617 31.4463 117.634 31.4657C117.893 31.7657 118.101 31.9577 118.258 32.0416C118.424 32.1352 118.595 32.1475 118.772 32.0784C118.949 32.0094 119.187 31.8449 119.487 31.5849L126.194 25.7601C126.474 25.5169 126.656 25.3076 126.741 25.1321C126.844 24.9579 126.861 24.782 126.792 24.6046C126.733 24.4188 126.582 24.1855 126.34 23.9048C126.323 23.8855 126.339 23.8458 126.389 23.7858C126.447 23.7355 126.488 23.7248 126.513 23.7539L127.127 24.4924C127.475 24.935 127.763 25.287 127.989 25.5484C128.24 25.8387 128.567 26.1981 128.972 26.6266L129.601 27.3254C129.618 27.3448 129.597 27.3796 129.539 27.43C129.481 27.4803 129.444 27.4958 129.427 27.4764C129.176 27.186 128.963 26.9983 128.788 26.9131C128.613 26.8279 128.437 26.8198 128.26 26.8888C128.091 26.9675 127.853 27.132 127.545 27.3824L120.867 33.182C120.578 33.4336 120.386 33.6423 120.293 33.8081C120.208 33.9836 120.195 34.1643 120.254 34.3501C120.323 34.5275 120.479 34.7566 120.721 35.0373C120.738 35.0566 120.718 35.0915 120.66 35.1418C120.602 35.1921 120.564 35.2076 120.548 35.1883C120.288 34.8882 120.084 34.642 119.934 34.4497L119.033 33.3773L118.127 32.3591C117.958 32.1835 117.736 31.9361 117.46 31.6167Z" fill="#DCCA87"></path><path d="M128.319 48.7327C127.73 47.4396 127.467 46.201 127.532 45.0169C127.602 43.8445 127.959 42.8083 128.602 41.9083C129.257 41.003 130.131 40.3003 131.224 39.8002C132.281 39.3161 133.356 39.162 134.448 39.3382C135.551 39.509 136.556 39.9715 137.461 40.7256C138.378 41.4744 139.108 42.4429 139.649 43.6312C139.899 44.1788 140.101 44.7619 140.257 45.3807C140.424 45.9941 140.512 46.4958 140.521 46.8858C140.517 47.0003 140.497 47.0798 140.461 47.1244C140.425 47.169 140.346 47.2264 140.223 47.2966L138.003 48.4818C137.957 48.5031 137.914 48.4873 137.876 48.4343C137.838 48.3814 137.831 48.3353 137.855 48.2961C138.553 47.484 138.994 46.6342 139.18 45.7467C139.377 44.8538 139.277 43.9706 138.879 43.0968C138.364 41.9668 137.562 41.2707 136.473 41.0088C135.396 40.7414 134.172 40.9217 132.8 41.5495C131.603 42.0975 130.641 42.7913 129.914 43.631C129.187 44.4707 128.738 45.3661 128.567 46.3172C128.402 47.2799 128.529 48.2215 128.948 49.1418C129.139 49.5612 129.343 49.855 129.56 50.0231C129.789 50.1859 130.061 50.2443 130.378 50.1981C130.711 50.1583 131.15 50.0134 131.697 49.7633C132.266 49.5026 132.655 49.2613 132.863 49.0395C133.071 48.8176 133.152 48.5482 133.106 48.2313C133.06 47.9145 132.896 47.4474 132.615 46.8299C132.583 46.76 132.613 46.7038 132.706 46.6612C132.741 46.6453 132.773 46.6378 132.801 46.6388C132.847 46.6461 132.875 46.6615 132.886 46.6848C133.268 47.6783 133.605 48.4954 133.897 49.1362C134.173 49.742 134.477 50.3631 134.81 50.9995C134.831 51.0461 134.803 51.0939 134.727 51.1428C134.651 51.1917 134.603 51.1928 134.581 51.1462C134.508 50.9545 134.408 50.8593 134.283 50.8606C134.157 50.8618 133.908 50.9476 133.536 51.1179L132.35 51.6605C131.827 51.9 131.469 52.085 131.276 52.2157C131.082 52.3465 130.945 52.4304 130.864 52.4677C130.794 52.4996 130.742 52.5092 130.708 52.4966C130.68 52.4956 130.638 52.4654 130.583 52.4062C129.578 51.0639 128.823 49.8395 128.319 48.7327Z" fill="#DCCA87"></path><path d="M134.145 70.8505C134.148 70.8759 134.112 70.894 134.036 70.9049C133.96 70.9159 133.92 70.9087 133.917 70.8833C133.866 70.5284 133.83 70.2359 133.81 70.0059L133.625 68.577L133.409 67.2106C133.362 66.9716 133.309 66.6429 133.249 66.2245C133.245 66.1992 133.28 66.1747 133.354 66.1511C133.43 66.1402 133.471 66.1537 133.476 66.1917C133.533 66.5847 133.604 66.8591 133.691 67.0147C133.78 67.1831 133.916 67.2799 134.101 67.3051C134.285 67.3303 134.573 67.3146 134.965 67.2581L139.329 66.6293L138.543 61.1528L134.18 61.7817C133.8 61.8363 133.527 61.9081 133.359 61.997C133.192 62.0986 133.084 62.2436 133.034 62.432C132.996 62.6186 133.004 62.9021 133.059 63.2824C133.064 63.3204 133.029 63.3449 132.953 63.3558C132.877 63.3668 132.837 63.3532 132.831 63.3152C132.771 62.8968 132.731 62.5727 132.711 62.3427L132.528 60.9328L132.321 59.6235C132.274 59.3844 132.222 59.0684 132.166 58.6754C132.16 58.6374 132.195 58.6129 132.271 58.602C132.347 58.591 132.388 58.6046 132.393 58.6426C132.448 59.0229 132.519 59.2909 132.605 59.4466C132.694 59.615 132.831 59.7117 133.015 59.7369C133.201 59.7748 133.49 59.7655 133.882 59.709L142.667 58.4431C143.2 58.3793 143.537 58.2531 143.677 58.0646C143.831 57.8743 143.87 57.5192 143.796 56.9995C143.79 56.9614 143.825 56.937 143.901 56.926C143.977 56.9151 144.018 56.9286 144.023 56.9667L144.135 57.8821C144.19 58.4436 144.242 58.8954 144.291 59.2377C144.34 59.58 144.419 60.0409 144.528 60.6204L144.686 61.5874C144.69 61.6128 144.654 61.6309 144.578 61.6418C144.502 61.6528 144.462 61.6456 144.459 61.6202C144.404 61.2399 144.326 60.9665 144.225 60.7999C144.123 60.6334 143.973 60.5321 143.774 60.4961C143.59 60.4709 143.307 60.4793 142.926 60.5213L139.075 61.0763L139.858 66.5337L143.709 65.9787C144.253 65.9003 144.601 65.766 144.755 65.5757C144.91 65.398 144.95 65.0493 144.876 64.5296C144.872 64.5042 144.908 64.4797 144.982 64.4561C145.057 64.4452 145.098 64.4587 145.104 64.4968L145.218 65.4313C145.273 65.9927 145.326 66.4509 145.377 66.8058C145.426 67.1481 145.503 67.5963 145.608 68.1505L145.766 69.1175C145.772 69.1555 145.737 69.18 145.661 69.191C145.585 69.2019 145.544 69.1884 145.539 69.1503C145.484 68.77 145.406 68.4966 145.305 68.3301C145.218 68.1744 145.082 68.0776 144.895 68.0397C144.709 68.0019 144.425 67.9976 144.041 68.0269L135.257 69.2928C134.89 69.3456 134.618 69.4237 134.439 69.5271C134.274 69.6414 134.168 69.7991 134.119 70.0002C134.083 70.1994 134.092 70.4829 134.145 70.8505Z" fill="#DCCA87"></path><path d="M133.368 78.9612C133.374 78.9232 133.414 78.9097 133.49 78.9206C133.566 78.9315 133.602 78.9497 133.599 78.975C133.522 79.5075 133.499 79.8987 133.527 80.1486C133.554 80.4113 133.65 80.5997 133.814 80.714C133.991 80.8301 134.269 80.9155 134.649 80.9701L143.433 82.236C143.874 82.3124 144.173 82.2973 144.33 82.1906C144.5 82.0857 144.611 81.8558 144.662 81.5008L144.697 81.2536C144.759 80.8226 144.681 80.3779 144.462 79.9194C144.257 79.4628 143.947 79.0559 143.534 78.6987C143.133 78.3434 142.671 78.0957 142.149 77.9558C142.124 77.9521 142.116 77.9186 142.125 77.8552C142.13 77.8172 142.142 77.7801 142.16 77.7439C142.189 77.7222 142.209 77.7186 142.22 77.7331C142.691 77.8657 143.936 78.1422 145.954 78.5624C145.992 78.5678 146.007 78.6023 145.998 78.6657C145.992 78.7037 145.981 78.7345 145.965 78.758C145.947 78.7942 145.925 78.8105 145.9 78.8068C145.634 78.7686 145.461 79.0347 145.379 79.6051C145.194 80.6265 144.99 81.9105 144.768 83.457C144.668 84.1543 144.569 84.9357 144.471 85.8014L144.299 87.1352C144.239 87.5536 144.227 87.8624 144.263 88.0616C144.299 88.2609 144.408 88.3996 144.59 88.4776C144.625 88.5084 144.631 88.5546 144.609 88.6162C144.598 88.6922 144.568 88.7203 144.52 88.7003C143.968 88.5821 143.272 88.4429 142.43 88.2828C141.601 88.1244 141.04 88.0306 140.747 88.0014C140.709 87.9959 140.695 87.9552 140.706 87.8791C140.721 87.7777 140.753 87.7306 140.804 87.7379C141.323 87.8126 141.821 87.7615 142.298 87.5844C142.773 87.42 143.174 87.1478 143.499 86.7677C143.823 86.4003 144.02 85.9758 144.089 85.4941L144.124 85.2469C144.161 84.9933 144.155 84.8049 144.108 84.6817C144.06 84.5712 143.961 84.4923 143.813 84.4451C143.678 84.3997 143.44 84.3461 143.1 84.2842L134.351 83.0428C133.959 82.9863 133.669 82.9833 133.481 83.0339C133.291 83.0971 133.148 83.2446 133.05 83.4763C132.952 83.7081 132.864 84.0965 132.786 84.6416C132.78 84.6796 132.74 84.6932 132.664 84.6823C132.588 84.6713 132.553 84.6468 132.558 84.6088C132.625 84.1398 132.685 83.773 132.735 83.5086L133.003 81.781L133.218 80.1429C133.246 79.8622 133.296 79.4683 133.368 78.9612Z" fill="#DCCA87"></path><path d="M120.009 111.476C120.026 111.456 120.064 111.472 120.121 111.522C120.179 111.572 120.2 111.607 120.183 111.627C119.924 111.927 119.764 112.161 119.703 112.328C119.635 112.506 119.647 112.677 119.74 112.843C119.834 113.009 120.03 113.222 120.329 113.482L127.036 119.307C127.316 119.55 127.549 119.701 127.734 119.761C127.921 119.838 128.097 119.83 128.263 119.736C128.438 119.651 128.647 119.468 128.889 119.187C128.906 119.168 128.948 119.179 129.014 119.219C129.072 119.27 129.088 119.309 129.063 119.338L128.421 120.052C128.034 120.461 127.727 120.796 127.501 121.057C127.25 121.348 126.941 121.724 126.576 122.186L125.975 122.91C125.959 122.929 125.921 122.914 125.863 122.864C125.805 122.813 125.785 122.778 125.801 122.759C126.053 122.469 126.208 122.231 126.267 122.045C126.326 121.859 126.309 121.683 126.216 121.517C126.114 121.361 125.918 121.148 125.627 120.879L118.949 115.079C118.659 114.827 118.425 114.667 118.248 114.598C118.063 114.539 117.883 114.552 117.708 114.637C117.542 114.73 117.338 114.917 117.095 115.198C117.079 115.218 117.041 115.202 116.983 115.152C116.926 115.101 116.905 115.067 116.922 115.047C117.181 114.747 117.395 114.509 117.564 114.334L118.495 113.287L119.371 112.243C119.521 112.051 119.733 111.795 120.009 111.476Z" fill="#DCCA87"></path><path d="M106.302 138.166C106.269 138.187 106.233 138.165 106.191 138.101C106.15 138.036 106.145 137.993 106.177 137.973C106.618 137.689 106.881 137.306 106.967 136.824C107.043 136.349 106.92 135.85 106.599 135.326L101.268 126.976C101.237 126.951 101.246 126.907 101.297 126.844C101.33 126.777 101.384 126.719 101.459 126.67C101.567 126.601 101.657 126.588 101.731 126.632L113.938 130.781L109.799 124.29C109.478 123.766 109.086 123.44 108.624 123.311C108.162 123.183 107.705 123.264 107.254 123.555C107.211 123.582 107.169 123.564 107.127 123.499C107.086 123.435 107.086 123.388 107.129 123.361C107.43 123.167 107.665 123.023 107.833 122.93L108.859 122.292L109.816 121.653C109.992 121.524 110.247 121.353 110.58 121.138C110.623 121.11 110.665 121.129 110.707 121.193C110.748 121.258 110.747 121.304 110.704 121.332C110.253 121.623 109.995 122.002 109.93 122.47C109.855 122.945 109.978 123.444 110.299 123.968L114.832 131.074C115.365 131.217 115.8 131.28 116.137 131.261C116.463 131.248 116.755 131.159 117.013 130.993C117.035 130.979 117.066 131.005 117.108 131.069C117.149 131.134 117.159 131.173 117.137 131.187L116.256 131.732C116.077 131.832 115.843 131.975 115.553 132.162C115.262 132.349 115.024 132.51 114.837 132.646C114.64 132.788 114.509 132.88 114.445 132.921C114.359 132.977 114.28 132.997 114.21 132.981C114.128 132.973 114.017 132.93 113.877 132.853C113.624 132.742 113.381 132.648 113.148 132.569L103.467 129.305L107.083 135.014C107.404 135.538 107.795 135.865 108.257 135.993C108.709 136.129 109.166 136.048 109.628 135.75C109.671 135.722 109.713 135.741 109.755 135.805C109.796 135.87 109.795 135.916 109.752 135.944L109.113 136.333C108.669 136.588 108.302 136.809 108.012 136.996C107.786 137.142 107.476 137.357 107.081 137.641L106.302 138.166Z" fill="#DCCA87"></path><path d="M68.2344 137.048C68.2089 137.073 68.1769 137.086 68.1386 137.086C68.1003 137.086 68.0619 137.073 68.0236 137.048C67.9853 137.035 67.9725 137.022 67.9853 137.009C68.113 136.177 68.1769 135.267 68.1769 134.281C68.1769 134.179 68.1961 134.102 68.2344 134.051C68.2728 134.012 68.3494 133.993 68.4644 133.993H77.2049C77.256 133.993 77.2815 134.032 77.2815 134.108C77.2815 134.185 77.2624 134.224 77.224 134.224C76.8407 134.224 76.5659 134.256 76.3998 134.32C76.2209 134.384 76.1059 134.505 76.0548 134.685C75.9909 134.864 75.959 135.152 75.959 135.549V144.444C75.959 144.828 75.9909 145.11 76.0548 145.289C76.1187 145.469 76.2401 145.59 76.419 145.654C76.5979 145.731 76.8662 145.769 77.224 145.769C77.2624 145.769 77.2879 145.808 77.3007 145.885C77.3007 145.962 77.2879 146 77.2624 146H69.0011C68.8989 146 68.8478 145.942 68.8478 145.827L68.8095 143.291C68.8095 143.253 68.8478 143.234 68.9245 143.234C68.9884 143.234 69.0267 143.246 69.0395 143.272C69.2567 143.989 69.6528 144.553 70.2279 144.963C70.7901 145.385 71.461 145.597 72.2405 145.597H72.6046C73.0008 145.597 73.2883 145.565 73.4672 145.501C73.6333 145.449 73.7419 145.347 73.793 145.193C73.8441 145.039 73.8761 144.783 73.8889 144.425V140.506H71.4929C70.8412 140.506 70.362 140.621 70.0554 140.851C69.7487 141.082 69.5953 141.453 69.5953 141.966C69.5953 142.017 69.5506 142.043 69.4612 142.043C69.3717 142.043 69.327 142.011 69.327 141.946L69.3462 140.89C69.3589 140.736 69.3653 140.518 69.3653 140.237C69.3653 139.827 69.3589 139.52 69.3462 139.315L69.327 138.277C69.327 138.213 69.3653 138.181 69.442 138.181C69.4803 138.181 69.5187 138.188 69.557 138.2C69.5826 138.226 69.5953 138.252 69.5953 138.277C69.5953 138.828 69.7678 139.244 70.1129 139.526C70.4451 139.82 70.9179 139.968 71.5313 139.968H73.8889V135.626C73.8889 135.114 73.8122 134.781 73.6589 134.627C73.4927 134.473 73.1541 134.397 72.643 134.397H72.1063C71.2757 134.397 70.5154 134.634 69.8253 135.107C69.1353 135.594 68.605 136.241 68.2344 137.048Z" fill="#DCCA87"></path><path d="M45.7496 141.133C45.6883 141.115 45.6685 141.069 45.6901 140.995C45.7117 140.922 45.7531 140.894 45.8144 140.912C46.2681 141.045 46.7044 141.034 47.1233 140.877C47.5299 140.716 47.9974 140.28 48.5256 139.567L54.747 131.287C54.8018 131.237 54.9027 131.233 55.0499 131.276C55.1112 131.294 55.1689 131.325 55.223 131.367C55.2807 131.398 55.3121 131.427 55.3171 131.455L56.9751 142.775C57.0517 143.331 57.1673 143.732 57.3217 143.978C57.4726 144.236 57.7196 144.416 58.0629 144.517C58.0997 144.527 58.1073 144.57 58.0857 144.643C58.0641 144.717 58.041 144.75 58.0165 144.743L57.0472 144.438C56.613 144.283 56.2917 144.176 56.0833 144.114C55.6174 143.977 55.0865 143.834 54.4908 143.686L53.5843 143.439C53.523 143.421 53.5031 143.375 53.5247 143.301C53.5463 143.227 53.5878 143.2 53.6491 143.218C54.3357 143.42 54.7348 143.33 54.8464 142.949C54.886 142.814 54.8909 142.615 54.8612 142.353L53.634 133.723L49.1531 139.812C48.9758 140.054 48.8584 140.273 48.8008 140.469C48.6892 140.85 48.7438 141.187 48.9646 141.479C49.1818 141.783 49.5233 142.003 49.9892 142.141C50.0383 142.155 50.052 142.199 50.0304 142.273C50.0088 142.347 49.9735 142.376 49.9244 142.362L48.9919 142.067C48.4596 141.884 47.9728 141.727 47.5314 141.597C47.2862 141.525 46.9761 141.447 46.601 141.364L45.7496 141.133Z" fill="#DCCA87"></path><path d="M34.4171 124.434C34.3818 124.441 34.348 124.435 34.3158 124.414C34.2835 124.393 34.2582 124.362 34.2398 124.319C34.2144 124.288 34.2106 124.27 34.2282 124.266C34.7848 123.635 35.329 122.905 35.861 122.075C35.9163 121.989 35.9738 121.935 36.0337 121.912C36.0867 121.901 36.1616 121.926 36.2583 121.989L43.6112 126.725C43.6542 126.752 43.655 126.799 43.6135 126.863C43.5721 126.928 43.5352 126.95 43.503 126.929C43.1805 126.721 42.9321 126.599 42.7578 126.563C42.5728 126.52 42.4104 126.56 42.2707 126.683C42.1202 126.799 41.9379 127.025 41.7237 127.359L36.9257 134.841C36.7185 135.165 36.5934 135.419 36.5504 135.604C36.5074 135.79 36.5439 135.958 36.6599 136.109C36.7689 136.27 36.974 136.448 37.275 136.642C37.3072 136.663 37.308 136.709 37.2773 136.78C37.2358 136.845 37.2043 136.87 37.1828 136.857L30.2331 132.38C30.1471 132.325 30.1352 132.249 30.1973 132.152L31.533 129.998C31.5537 129.965 31.5963 129.97 31.6608 130.011C31.7146 130.046 31.7399 130.078 31.7368 130.106C31.5327 130.827 31.562 131.516 31.8246 132.172C32.0697 132.832 32.52 133.374 33.1758 133.796L33.4821 133.993C33.8154 134.208 34.0745 134.337 34.2596 134.38C34.427 134.427 34.5736 134.4 34.6995 134.298C34.8254 134.196 34.9904 133.998 35.1946 133.703L37.3086 130.407L35.293 129.108C34.7448 128.755 34.2795 128.592 33.8972 128.62C33.5148 128.648 33.1855 128.877 32.9091 129.308C32.8815 129.351 32.83 129.349 32.7548 129.3C32.6795 129.252 32.6592 129.201 32.6937 129.147L33.2798 128.268C33.3735 128.146 33.4963 127.966 33.6483 127.729C33.8693 127.384 34.0298 127.122 34.1296 126.943L34.673 126.06C34.7076 126.006 34.7571 126 34.8216 126.041C34.8538 126.062 34.8826 126.088 34.908 126.12C34.9157 126.155 34.9126 126.184 34.8988 126.205C34.6017 126.669 34.5223 127.112 34.6606 127.536C34.7812 127.964 35.0995 128.344 35.6154 128.676L37.5988 129.954L39.9408 126.302C40.2171 125.871 40.3322 125.549 40.2861 125.337C40.2293 125.117 39.9859 124.869 39.5559 124.592L39.1044 124.301C38.4057 123.851 37.6382 123.639 36.8021 123.663C35.9591 123.699 35.1641 123.956 34.4171 124.434Z" fill="#DCCA87"></path><path d="M22.1151 107.906C22.09 107.877 22.1064 107.837 22.1643 107.787C22.2139 107.727 22.2554 107.716 22.2889 107.755L24.3474 110.136C24.5483 110.368 24.5134 111.11 24.2429 112.362C23.9544 113.612 23.3794 115.323 22.5178 117.495C22.8197 117.707 23.1129 117.978 23.3974 118.307C23.4393 118.356 23.484 118.427 23.5317 118.521L26.9648 115.539C27.2532 115.306 27.449 115.102 27.552 114.928C27.637 114.752 27.6499 114.572 27.5906 114.386C27.5134 114.199 27.3493 113.96 27.0982 113.67C27.0648 113.631 27.077 113.586 27.1349 113.536C27.1845 113.476 27.226 113.465 27.2595 113.504C27.544 113.833 27.7568 114.089 27.8977 114.272L28.8121 115.359L29.768 116.435C29.945 116.62 30.1758 116.877 30.4603 117.206C30.4938 117.245 30.4857 117.294 30.4361 117.354C30.3782 117.405 30.3325 117.411 30.299 117.372C30.0229 117.052 29.7937 116.836 29.6115 116.723C29.4197 116.619 29.2353 116.601 29.0582 116.67C28.8632 116.738 28.6214 116.888 28.333 117.122L21.626 122.947C21.3363 123.198 21.1489 123.412 21.064 123.587C20.9706 123.753 20.9625 123.93 21.0398 124.117C21.1073 124.312 21.2708 124.56 21.5302 124.86C21.5637 124.899 21.5515 124.943 21.4935 124.994C21.4356 125.044 21.3899 125.05 21.3564 125.011L20.7056 124.229C20.3568 123.786 20.0652 123.43 19.8309 123.159C19.5463 122.829 19.2174 122.488 18.8441 122.134C18.557 121.842 18.3716 121.647 18.2879 121.55C17.4427 120.572 16.9703 119.703 16.8706 118.942C16.7625 118.172 16.9933 117.539 17.5631 117.045C17.9784 116.684 18.5005 116.476 19.1295 116.421C19.7501 116.357 20.3874 116.439 21.0414 116.667C21.6345 114.83 22.0624 113.34 22.3252 112.197C22.5699 111.052 22.6801 110.143 22.6557 109.47C22.6133 108.795 22.433 108.273 22.1151 107.906ZM23.126 118.873C23.0546 118.732 22.9478 118.579 22.8055 118.414C22.2532 117.776 21.7241 117.447 21.2181 117.429C20.7037 117.401 20.1182 117.673 19.4615 118.243C18.7758 118.838 18.3908 119.41 18.3064 119.958C18.204 120.504 18.3201 120.971 18.6549 121.358C18.8808 121.62 19.0549 121.782 19.1772 121.845C19.2899 121.917 19.4257 121.917 19.5847 121.847C19.7257 121.775 19.9598 121.606 20.2868 121.339L23.126 118.873Z" fill="#DCCA87"></path><path d="M4.22094 98.2787C4.19439 98.2204 4.21599 98.1753 4.28574 98.1434C4.35548 98.1115 4.40362 98.1247 4.43016 98.1829C4.61595 98.5907 4.9507 98.9091 5.4344 99.1383C5.90118 99.3611 6.5423 99.5041 7.35778 99.5673L11.4668 99.7985L15.5292 97.939C15.8895 97.7741 16.1378 97.6253 16.274 97.4925C16.4049 97.3481 16.4569 97.1695 16.4301 96.9565C16.4033 96.7435 16.2943 96.4273 16.1032 96.0079C16.082 95.9613 16.1062 95.922 16.176 95.8901C16.2457 95.8581 16.2912 95.8655 16.3124 95.9121C16.4982 96.3198 16.6358 96.637 16.725 96.8637L17.3366 98.2522L18.0149 99.6946C18.1327 99.9223 18.2818 100.234 18.4623 100.63C18.4836 100.677 18.4593 100.716 18.3896 100.748C18.3198 100.78 18.2743 100.773 18.2531 100.726C18.062 100.307 17.8923 100.011 17.7439 99.8398C17.5839 99.6737 17.4066 99.5929 17.2121 99.5975C17.0122 99.5904 16.7405 99.6725 16.3971 99.8438L12.5867 101.609L9.63339 106.319C9.33072 106.795 9.13898 107.207 9.05816 107.554C8.97203 107.889 8.98736 108.184 9.10414 108.441C9.12538 108.487 9.10112 108.527 9.03138 108.558C8.96695 108.602 8.92677 108.606 8.91084 108.571L8.51423 107.655C8.33576 107.201 8.19875 106.87 8.1032 106.66C7.97049 106.369 7.75981 105.937 7.47114 105.366L7.04762 104.482C7.03169 104.447 7.04698 104.419 7.09347 104.398C7.12834 104.382 7.16852 104.378 7.21401 104.385C7.24257 104.386 7.26215 104.398 7.27277 104.421C7.41079 104.724 7.53489 104.935 7.64509 105.054C7.74997 105.16 7.85472 105.19 7.95933 105.142C8.06395 105.094 8.17108 104.975 8.28072 104.784L11.0965 100.327L7.15734 100.145C6.87709 100.146 6.64398 100.19 6.458 100.275C6.19066 100.397 6.01809 100.589 5.94029 100.85C5.85719 101.099 5.8926 101.392 6.04655 101.73C6.06778 101.777 6.04352 101.816 5.97378 101.848C5.90404 101.88 5.86121 101.879 5.84528 101.844L5.43274 100.892C5.19057 100.299 4.99783 99.845 4.8545 99.5304C4.76426 99.3324 4.64913 99.1105 4.5091 98.8648L4.22094 98.2787Z" fill="#DCCA87"></path><path d="M6.08512 62.1061C6.36618 61.0468 6.844 60.2358 7.51857 59.6731C8.18049 59.1086 8.94149 58.8883 9.80157 59.0122C10.4593 59.107 11.0256 59.3892 11.5004 59.8587C11.9753 60.3282 12.3217 60.9281 12.5397 61.6582C12.7451 62.3865 12.7868 63.1753 12.665 64.0247C12.6141 64.3796 12.5369 64.7826 12.4335 65.2335C12.3954 65.4091 12.3509 65.6291 12.3001 65.8935C12.251 66.1452 12.2038 66.4296 12.1583 66.7465L11.9809 68.1183C11.959 68.361 11.9171 68.6979 11.8553 69.1289C11.8517 69.1542 11.8119 69.1614 11.736 69.1505C11.6601 69.1396 11.624 69.1214 11.6276 69.0961C11.6804 68.7284 11.6879 68.4513 11.6501 68.2647C11.6015 68.0637 11.4941 67.9123 11.3279 67.8107C11.1617 67.7092 10.8889 67.631 10.5095 67.5764L1.72524 66.3105C1.35844 66.2576 1.08104 66.2565 0.893056 66.307C0.694238 66.3431 0.549569 66.4516 0.459049 66.6327C0.3577 66.7992 0.280656 67.0663 0.227918 67.4339C0.224281 67.4593 0.184518 67.4665 0.108628 67.4556C0.0327387 67.4446 -0.00338759 67.4265 0.000249511 67.4011L0.163797 66.396C0.269109 65.8419 0.346316 65.3937 0.395417 65.0514C0.446336 64.6965 0.480102 64.3261 0.496714 63.9403C0.502251 63.8117 0.516881 63.6197 0.540603 63.3644C0.564326 63.109 0.589827 62.8863 0.617105 62.6961C0.788049 61.5045 1.12859 60.6155 1.63873 60.0291C2.15069 59.43 2.80509 59.1879 3.60193 59.3028C4.20905 59.3902 4.73016 59.6724 5.16525 60.1491C5.60034 60.6259 5.90696 61.2782 6.08512 62.1061ZM0.955637 63.036C0.902899 63.4036 0.955066 63.6699 1.11214 63.8349C1.26921 63.9999 1.58806 64.117 2.0687 64.1862L5.67347 64.7057L5.80428 63.9288C5.90248 63.2443 5.73131 62.6826 5.29076 62.2439C4.83939 61.7907 4.23425 61.5094 3.47535 61.4C2.7544 61.2962 2.17965 61.388 1.7511 61.6756C1.31172 61.9487 1.04656 62.4022 0.955637 63.036ZM12.2012 64.2878C12.3303 63.3877 12.2036 62.6966 11.8209 62.2145C11.4382 61.7324 10.8105 61.4284 9.93776 61.3026C8.96384 61.1623 8.15774 61.292 7.51946 61.6917C6.88118 62.0914 6.49021 62.792 6.34654 63.7935C6.2938 64.1611 6.25917 64.4925 6.24264 64.7877L10.815 65.4466C11.2577 65.5104 11.5794 65.4727 11.7801 65.3334C11.9808 65.1941 12.1212 64.8456 12.2012 64.2878Z" fill="#DCCA87"></path><path d="M16.6115 49.4626C16.6009 49.4859 16.5607 49.4816 16.491 49.4497C16.4213 49.4178 16.3917 49.3902 16.4023 49.3669C16.5669 49.0057 16.6546 48.7361 16.6655 48.5581C16.6817 48.3684 16.6217 48.2072 16.4855 48.0744C16.3493 47.9417 16.1011 47.7929 15.7407 47.6279L7.66812 43.933C7.33103 43.7787 7.0652 43.6992 6.87062 43.6946C6.66973 43.6731 6.50306 43.7306 6.37063 43.8671C6.22657 43.9982 6.07757 44.2327 5.92363 44.5706C5.91301 44.5939 5.87018 44.5954 5.79513 44.5751C5.72538 44.5432 5.69848 44.5098 5.7144 44.4748L6.12996 43.6091C6.38677 43.1071 6.58684 42.6989 6.73017 42.3843C6.88942 42.0348 7.07951 41.5868 7.30045 41.0403L7.67317 40.176C7.68379 40.1527 7.72397 40.157 7.79371 40.1889C7.86345 40.2209 7.89302 40.2485 7.8824 40.2718C7.72315 40.6213 7.64124 40.8935 7.63666 41.0885C7.63209 41.2836 7.69789 41.4474 7.83408 41.5802C7.97558 41.7013 8.22384 41.8501 8.57886 42.0267L16.6166 45.7057C16.9653 45.8653 17.2343 45.9532 17.4236 45.9695C17.6181 45.974 17.7875 45.9108 17.9315 45.7796C18.064 45.6431 18.2071 45.4059 18.3611 45.0681C18.3717 45.0448 18.4119 45.0491 18.4816 45.081C18.5514 45.1129 18.5809 45.1405 18.5703 45.1638C18.4058 45.525 18.2672 45.8136 18.1548 46.0296L17.5561 47.2973L17.0082 48.546C16.9189 48.7726 16.7867 49.0782 16.6115 49.4626Z" fill="#DCCA87"></path><path d="M24.9744 35.1783C24.9493 35.2073 24.9078 35.1967 24.8498 35.1464C24.7919 35.0961 24.7713 35.0612 24.788 35.0419C25.1395 34.6353 25.3706 34.3192 25.4813 34.0933C25.6003 33.8578 25.6216 33.6475 25.5449 33.4623C25.4587 33.2687 25.2707 33.0461 24.9809 32.7945L18.274 26.9698C17.9443 26.6665 17.6846 26.5172 17.4947 26.5217C17.2951 26.5179 17.0782 26.6515 16.8438 26.9225L16.6807 27.1112C16.3962 27.4403 16.2221 27.8568 16.1584 28.3607C16.085 28.8563 16.126 29.3663 16.2812 29.8909C16.4267 30.407 16.6813 30.8654 17.0451 31.2661C17.0644 31.2829 17.0532 31.3155 17.0113 31.3638C16.9862 31.3929 16.9563 31.4177 16.9215 31.4384C16.8855 31.441 16.8668 31.4332 16.8655 31.4152C16.5404 31.0481 15.6422 30.141 14.1711 28.6939C14.1421 28.6687 14.1486 28.6319 14.1904 28.5835C14.2155 28.5545 14.2413 28.5345 14.2676 28.5235C14.3024 28.5029 14.3294 28.5009 14.3488 28.5177C14.5516 28.6938 14.8412 28.5641 15.2178 28.1285C15.9246 27.3697 16.7884 26.3999 17.8093 25.219C18.2696 24.6866 18.7746 24.083 19.3243 23.408L20.1884 22.3792C20.4646 22.0597 20.6413 21.8065 20.7185 21.6194C20.7957 21.4322 20.7787 21.2564 20.6673 21.0919C20.655 21.0474 20.6747 21.0051 20.7262 20.9651C20.7764 20.907 20.8166 20.8996 20.8469 20.9428C21.2467 21.3409 21.7576 21.8354 22.3795 22.4264C22.9918 23.009 23.4131 23.3919 23.6436 23.5751C23.6726 23.6002 23.662 23.6419 23.6118 23.6999C23.5448 23.7774 23.492 23.7993 23.4534 23.7658C23.0575 23.4219 22.611 23.1951 22.114 23.0855C21.6254 22.9662 21.1416 22.9782 20.6626 23.1214C20.1921 23.255 19.7978 23.5057 19.4798 23.8736L19.3166 24.0623C19.1492 24.2559 19.0521 24.4172 19.025 24.5462C19.0064 24.6656 19.0466 24.7853 19.1458 24.9053C19.2353 25.0169 19.4062 25.1908 19.6586 25.4269L26.3491 31.212C26.6485 31.472 26.8909 31.6317 27.0763 31.691C27.2701 31.7407 27.4706 31.6945 27.6779 31.5526C27.8852 31.4106 28.1687 31.1315 28.5285 30.7153C28.5536 30.6863 28.5952 30.6969 28.6531 30.7472C28.711 30.7976 28.7275 30.8372 28.7024 30.8663C28.3927 31.2244 28.1452 31.5009 27.9599 31.6958L26.8031 33.0044L25.7381 34.2656C25.5637 34.4869 25.3091 34.7911 24.9744 35.1783Z" fill="#DCCA87"></path><path d="M42.0237 16.7054C42.0314 16.67 42.0513 16.6419 42.0836 16.6211C42.1158 16.6003 42.155 16.5903 42.2011 16.5911C42.2402 16.5811 42.2579 16.585 42.254 16.6027C42.5956 17.3722 43.0324 18.1718 43.5643 19.0014C43.6196 19.0876 43.6449 19.1627 43.6403 19.2265C43.6288 19.2796 43.5746 19.3373 43.4779 19.3996L36.125 24.1358C36.082 24.1635 36.0398 24.145 35.9983 24.0803C35.9569 24.0157 35.9523 23.973 35.9845 23.9522C36.307 23.7445 36.5208 23.5687 36.6261 23.4248C36.742 23.274 36.7731 23.1093 36.7194 22.9308C36.6764 22.7453 36.5479 22.4856 36.3337 22.1516L31.5357 14.6689C31.3285 14.3457 31.1496 14.126 30.9992 14.0098C30.8487 13.8935 30.6809 13.857 30.4959 13.9C30.304 13.9323 30.0575 14.0454 29.7565 14.2393C29.7242 14.2601 29.682 14.2416 29.6298 14.1839C29.5884 14.1192 29.5784 14.08 29.5999 14.0661L36.5497 9.58966C36.6357 9.53426 36.7097 9.55505 36.7719 9.65202L38.1721 11.7645C38.1928 11.7969 38.1709 11.8338 38.1064 11.8753C38.0526 11.91 38.0135 11.92 37.9889 11.9053C37.4193 11.4197 36.7821 11.1603 36.0773 11.1271C35.3763 11.0762 34.6979 11.2619 34.0422 11.6843L33.7358 11.8817C33.4026 12.0963 33.178 12.279 33.062 12.4298C32.9499 12.563 32.9138 12.708 32.9537 12.865C32.9936 13.022 33.1049 13.2548 33.2876 13.5634L35.4016 16.8603L37.4172 15.562C37.9654 15.2089 38.3064 14.8522 38.44 14.4921C38.5737 14.132 38.5023 13.7365 38.226 13.3055C38.1983 13.2624 38.2221 13.2166 38.2974 13.1681C38.3726 13.1197 38.4275 13.1224 38.4621 13.1763L39.0159 14.0755C39.0881 14.2117 39.2001 14.3983 39.3521 14.6354C39.5732 14.9802 39.7444 15.2353 39.8657 15.4007L40.4414 16.2631C40.4759 16.3169 40.4609 16.3646 40.3964 16.4062C40.3642 16.427 40.3285 16.4423 40.2893 16.4523C40.254 16.4446 40.2294 16.43 40.2156 16.4085C39.9186 15.9452 39.5489 15.6885 39.1067 15.6384C38.6683 15.5706 38.1911 15.7029 37.6751 16.0353L35.6917 17.3128L38.0337 20.9652C38.3101 21.3962 38.5542 21.6348 38.7661 21.681C38.9887 21.7203 39.3151 21.6014 39.7451 21.3245L40.1966 21.0336C40.8953 20.5836 41.4071 19.9723 41.732 19.1997C42.0499 18.4164 42.1472 17.5849 42.0237 16.7054Z" fill="#DCCA87"></path></svg>